<svg xmlns="http://www.w3.org/2000/svg" id="_x3F__x3F__x3F__x3F__1" viewBox="0 0 175.4 174.1">
  <style>
    .st3{fill-rule:evenodd;clip-rule:evenodd;fill:#bf9770}
  </style>
  <path fill="#f6b9d4" fill-rule="evenodd" d="M80.8 1.7c.6-2 4.8.6 5.6.7 5.9 1.2 5.5 8.5 4.7 9-.8.5-1.3 7.6-2 8.2-.8 1-.7 3.5-2 4.8-3.8 3.3-11.2 3.1-15.3 0-.7-.4 6.4-3.2 5.2-4.4-1.6-1.6-9.6-1.5-10.2-3.7-1-3.8 2-8.7 2.8-9.3.7-.6 1.6 1.1 3.3 2.5 1.2 1 3.2 1.2 4 2.4 1.2 1.8.1 3.6 1.6 4.8 1.7 1.4 5 .1 6.3 0 .9-.1-1.4-3.3-3.5-6.6-1.2-2-.7-7.8-.5-8.4z" clip-rule="evenodd"/>
  <path fill="#aac594" fill-rule="evenodd" d="M52 7.6c.7-2 4.3-4.5 5-4.3 3 .5 3.6 14.7 5.2 11.5C69.4.4 69.7 2.8 70.8 3c3 .4-5.4 6.6-3.8 13 .2.8 5.3 1 4.7 3.3-.2 1-3.2 2.2-5 3.9-3.2 3.3-17.2 12.9-21.2 5.8-1.8-3.1.4-4.4 1.9-5.6 2.8-2.3 7.8-2.7 12.3-3.2 1 0-7.3-.8-9.3-4.1-1.2-2 1.5-7.8 1.7-8.4z" clip-rule="evenodd"/>
  <path fill="#e3bc92" fill-rule="evenodd" d="M117.6 16.2c9.8 1.9 1.2 5 .6 9.6-.7 4.5-8.5 5.8-18.1-2.3-5.3-4.5-6.7-8.1-4.3-10.5 2-2 5-4.4 9.7-8 8.2-6.2 4.5 4 6.2 10.9.4 1.5 4.3 0 6 .3z" clip-rule="evenodd"/>
  <path d="M106.4 20.7l1.5-.8c1.6-.8 3.6-1.4 5.4-1.7h2.3c.8 0 1.4 0 2.2.2 1 .2 2.7 1 3 1.7-3 .9-2.7.4-4.1 3-.8 1.4-1.6 3.2-3.2 4-1 .5-1.9.4-3 0-.8-.2-1.8-.5-2.2-1.2-.4-.7-1.8-4.3-2-5.2zm-31.2 3c.4-.5 2.3-1.8 2.9-2.2 1.4-1 3.3-2.4 5.1-2.7.6 0 1.4-.4 2-.6.3-.1.5-.2.7-.5.3-.3.1-.5.7-.6.2 0 1.2.5 1.4 1.1.4 1.6-.3 3-1 4-.6.6-1.9 1.9-2.9 2.3-1.2.4-3.2.2-4.6 0l-4.3-.8zm-14.3 3.7c.3-1.5 3.4-6 4.6-7.5 2.2-2.8 1.5-1.5 3.5-1l1 .3c-1 .6-2 1-2.8 1.6-2.4 1.9-1.3 3-4 4.7-.8.6-1.4 1.3-2.3 1.9zm36.6-8c-.7-.2-1.7-1.1-2-1.6a4 4 0 0 1 .1-3 10 10 0 0 1 1.9 4.5zm-1.1.9a4 4 0 0 1-1.4-1c-.4-.4-.7-1-.9-1.6a5 5 0 0 1 0-2.2c0-.5.5-1.5.4-2-.5-.4-2-1.8-3-2-.3 2-1.4 4.5-.2 6.3.8 1 3.5 2 5 2.5zm0-6.6c.3.8 1.2 1.4 2 3.5l.4 2c.2 1.2.2.7 1.4 1.5.6.4.8.8 1.3 1.3.3.4 1.2.8 1.7 1 .9.5 2.6 1.9 3.2 2.1l-1.4-4c-1.4-.1-2.4 0-2.8-1.2-.6-1.4 1-1.4 1.7-1.9 0-.9-2.5-6.8-2.9-7.2a15 15 0 0 0-4.6 2.9zm-19-2.1c.8-.3 2.6-1 3.5-1l.6 1.9c.3.7.5 1 .9 1.5.2.4.8 1 1.2 1.2.6.3.9.3 1.6.9-1.2.1-5.3.7-6.1.3-.4-.2-.6-.5-.7-1l-.6-2.7-.5-1.1zM67.1 16c-1-1.7 0-3.6.9-4.9l1.3-1.9c.3-.4.9-1.7 1.2-2l.6 1.3c1 2 1.6 2 2.8 2.9-.2.3-2.8 1.6-3.6 2.1-.7.6-2.7 2.3-3.2 2.5zm7.5 6.2c1.7-1.2 4.7-3.7 6.6-4.2-.3-.2-1 0-1.3 0-3.7.3-2.6-4.1-4-5.8-1 0-3.6 1.7-4.2 2.1a50.6 50.6 0 0 0-2.7 2l-.6.5-.2.2c.6.7 3 1.3 4.2 1.1 1-.1 3.8-.9 4.1.5.3 1.4-3 1-4.1 1.1-1 .2-2.8 1.2-3.6 1.7-2.6 1.6-2 2.7-3.5 4.3l-4.6 3.4c-1 .5-.8.4-1.2 1.5A57.1 57.1 0 0 0 63.3 68 51 51 0 0 0 69.8 80l1.2 1.4.6.7.6.7 2 2a42 42 0 0 0 5 4.2l3.3 2.1c2 1.3 4.4 2.6 6.7 3.8 2 1 2.1.7 3.6-.4 1-.8 1.9-1.6 3-2.3 5.8-4.2 9-.3 12.6-1.3 1.4-.4 1.1-.9 1.7-1 .8-.2 1-.5 1.7-1 2-1.5 3.7-3.2 6-4.4A12.6 12.6 0 0 1 123 83l1.2-.1c4.2-1.2 8.8.2 10.9-2.3 3.2-3.8 2.1-11 10.5-10.5 3.6.2 6 .8 9.4-.4 2.8-1 5.1-2.5 3.2-6-.6-1-1.5-2.1-2.2-3-1.1-1.3-2.5-3-3.8-4.1l-1.4-1.2-1.5-1.2c-6.1-4-11.6-3.7-18.4-5.3l-4.1-1.1-2-.8-1.7-.9c-2.5-1.3-4.3-3-5.9-4.6a53.3 53.3 0 0 1-8.8-12.3l-.9-1.7c-.2-.5-1-.8-1.5-1.2-.7-.4-2.6-1.7-3.3-2 .1.7.9 2.6 1.2 3.8a62.9 62.9 0 0 1-6.2 44.4A20.8 20.8 0 0 1 87 81.7c-4.1 1.4-8.2.7-11.6-1.7l-1.4-1.1-2.5-2.4A42.3 42.3 0 0 1 64.8 66a38.4 38.4 0 0 1-5.3-23.4 50.7 50.7 0 0 1 1.4-6c.1-.4.5-1.5 1-1.4.5.4 0 4.2-.2 5l-1 4.6a23 23 0 0 0 .9 9.8c1.6 5.4 4 10.4 6.8 15.2 1.3 2 3.6 5.3 5.4 7 1.7 1.5 3.7 3 6 3.7.7.2 1.5.4 2.3.4h2.7c1-.2 3-1 4-1.6 7.3-4 10.5-12 13-20.1a57.7 57.7 0 0 0-1-35.7c-.3-.5-1-.7-1.9-1l-4-1.4c-2.7-1-5.9-1.9-5.5-5.5.1-1.5.9-3.1.9-4.6l-3.7-.9c-1.3-.1-2.9-.2-4.1 0-.1.8.5 2.3.8 2.8.4.6 2.2 1.5 2.5 1.9l1.7 1c1.1.8 1.2.1 1.8 1.9.8 2-.4 4.2-1.4 5.3-3.2 4-5.9 3.2-10.6 2.4a16 16 0 0 0-3.2-.3c-.4 0-1.5 0-1.7-.2-.4-.3 0-1 .2-1.3.5-.5 1.4-1 2.1-1.5zm31-14c1-.6 2-1.5 3.2-2 .3 2.1.2 5-.5 6.8-.5 1.4-2.2 4-3.2 4.2-.2-.2-.2-.6-.3-1l-1-2.6c-.4-.7-1.5-2.8-1.6-3.5l3.4-1.8zm-43 13c.7-.8 2.6-3.5 3.4-4 0-1-2-2.3.8-6.9 1-1.6 3-3.5 3-6.1-1.5.3-4 3.7-4.8 5.2-.6 1.2-1 2.5-1.2 3.9-.1.8-.2 4.1-.4 4.5-.1.3-1.2.7-1.3-.6a3 3 0 0 0-.8-1.9c-.7-.9-1.8-1.5-2.6-2.4-1.8-2-2.4-4-2.5-7.6l-.4.5c-1.6 2-3 4.4-3.5 7-.3 1.1-.3 2.2.5 3 1.5 1.6 7.2 1.5 9.5 4 .4.4.5.7.3 1.3-1.2.2-1.4 0-2.6-.3-2.5-.5-5.3.6-7.1 2l-.9.7-2.4 2.2c-.6.6-2.9 2.6-3.2 3.2 3.5.7 8 .8 11.3-.1 1.3-.4 1.1-.4 1.6-1.6.9-2.2 2-4.1 3.4-6zm8.5-17.8c0 2.6 1.5 5.3 2.7 6.3.4.3.9.7 1.5.8.7.2 1.2-.2 1.8-.4l3.6-1c0-1 .2-3.5 0-4.4-.2-.7-1-1.7-1.4-2.3l-.3-.8C77 1.3 73 2.8 71.2 3.4zm11 5.5c-.1-.6.2-2.9.1-3.8-.1-1.2-.9-2-1-2.7 2.4 0 4.5 1 6 2 1.3.8 3.3 2.8 3.1 5.1-.6 0-1.2-.3-1.8-.4-3-.6-4-.1-6.4-.2zm13.3 3.7l-1.7-1.3c-.5-.4-1.2-.7-1.8-1-.3-.3-.4-1.8-.5-2.5-.3-2-2.2-3.8-3.8-4.8-2-1.4-3.4-1.3-4.2-1.6C86 1.3 92 2.7 93.8 3.6c2 1 6 4.1 6.5 6-.4.5-1.9 1-2.5 1.4l-2.3 1.6zm-93.2 92v1.3c.2.2.6 0 1 0l3-1 4.1-.8c8.2-1.8 19.1-3.2 27.4-3 6 0 12.8-.3 16.9-3.4 1.7-1.3 3.3-3.2 4-6.1.9-3.9.3-6.2.4-9.5l1.4 2.4c1.6 2.6 2.2 3.3 4 5.6a25.8 25.8 0 0 0 9.6 7.6 26 26 0 0 0 15 .4c1.8-.6 1.2-1 2.9-.3a90.7 90.7 0 0 0 6.8 2.7 128 128 0 0 0 24.7 5.8c6.7 1 14 2 20.7 2.3 1 0 7 .1 7.4.3h18.6v-.7c-.1-.3 0-.8-.2-1-.1-.2-2.2 0-2.6 0-13.4.4-26.3 0-39.6-1.7a156.3 156.3 0 0 1-27.4-6c-1.2-.3-7.4-2.6-8-3 .2-.3 3-2.2 3.4-2.6 3.4-2.5 4.8-2.7 9-1.8 2 .5 3.4.7 5-.3l1-.5.8-.6 1.7-1.2c2.4-1.8 4-3.7 7.2-4.6 1.3-.4 2.6-.4 4-.5.5 0 .7-.2 1.2-.3 4-.7 8.2.5 10.6-2.6 1.7-2.2 2-4.6 3.4-7 1.8-3.4 4.3-3 8.8-2.7a16 16 0 0 0 9.7-2c3-2 2.5-5.1.4-8l-.6-.8-4.3-4.6-.7-.8c-2-2.3-4-3.7-7-4.8-8-2.9-18-2-24.9-7.6l-3-2.8-.8-.7a64.4 64.4 0 0 1-5.8-7.6c-.6-1-1.7-2.6-2-3.8.8 0 2.5 1.1 4.4.4 2.7-1 3.2-4.7 4.4-6.4.7-.8 1-.6 1.8-1 .6-.1 1.4-.4 2-.7.3-1.3-1.9-2.3-2.9-2.8-1.3-.6-2.8-1-4.5-1a17 17 0 0 0-6.9 1.5c-.6.3-1.3.8-1.9 1l-.2-.6c2-1.1 3.6-3.5 4.2-5.8.4-1.4.6-3 .6-4.4 0-1.3-.1-3.5-.8-4.2-.8-.1-3.5 2-4 2.3-.8.5-3.2 2.3-4.2 2.3-.2-.6-1-1.5-1.4-2a17.2 17.2 0 0 0-5.6-4.5C89.9.2 83.7.3 83.2 0h-3c-.4.2-3 .3-3.7.4l-3.2.7a14.6 14.6 0 0 0-11 13l-2-1.9a7 7 0 0 1-2.5-5.5c0-1 .3-3.2-.2-3.8-1.3-.4-3.6 2.9-4.1 3.7a18 18 0 0 0-2.4 5.5 7 7 0 0 0 0 3.5c.2.8 1.1 1.6 1.9 2 .8.5 1.9.7 3 1 .6 0 2.5.5 3 .7-1 .4-3-.8-7.5 2.8-1 .8-4.4 4-5.2 5-.7.8-3 2-1.6 2.8 1 .5 3 .7 4.3.8 2.3.2 4.9.3 7.2-.2l2.1-.4-.7 2.4-.6 2.7c-1 6.2-.8 11.1.2 17.4A73.9 73.9 0 0 0 68 79.8a48.5 48.5 0 0 0 17.2 14.5l4 2.2c-.4.3-2.2.7-2.9.8l-3.4.1c-5.2.2-7.6 0-11.7-3l-2.6-2-2.2-2.4c-1-1-1.6-1.9-2.4-3a32.4 32.4 0 0 1-5.1-9.6l-.5-1.4-.2-1.6-.2-3.4c0-.4-.2-.4-.3-.8l-.3-2.4-1.1-9.9c-.7-7.5-.9-13.7-.6-21.2.1-1.2.2-2.4.1-3.6 0-.4.1-1.3-.2-1.5-.2 0-1-.3-1 .6-.2 1.1 0 2.5 0 3.6l-.3 3.4v7.3c.1 7.1.8 13.5 1.7 20.4.3 2.2.6 4.3.7 6.5.2 2.6.7 4.3 1 6.5.2 2.2.3 4.8.2 7-.2 4.8-1.6 8.4-4.6 10.1-5.1 3-13.1 2.7-19.3 2.6l-3.4.3A192 192 0 0 0 8 103c-.7.2-5.6 1.4-5.8 1.6zM0 128l.2 5.4v7c0 5.4 4.3 8.8 10.3 8.8 6 0 10.4-3.4 10.4-8.8v-7l.1-5.4h-3.5l.1 5.4v7c0 4-2.9 6.6-7 6.6-4.3 0-7.2-2.6-7.2-6.6v-7l.1-5.4H0zm68.1 5.4l.2-5.4h-3.5l.1 5.4v15.4h3.4l-.2-4.4v-5.8H83v10.2h3.4l-.2-4.4v-11l.2-5.4h-3.5l.1 5.4v3.2H68.1v-3.2zm-28.6 7.2H42c5.4 0 9-2.7 9-6.3 0-3.6-3.3-6.3-8.9-6.3h-6V148.8h3.4l-.1-5.4v-2.8zm0-10.7h2.3c3.9 0 6 2 6 4.4 0 2.2-2.4 4.4-6 4.4h-2.3V130zm84.6 19l-3-4.7-9.4-16.6h-.9l-9.3 16.6-2.9 4.6h3.7c.3-.8.8-1.9 1.7-3.5l2-3.5h10.3l2 3.6 1.7 3.4h4.1zm-9-9.2h-8l4-7.7 4 7.7zm25.2-6.3l.1-5.4H137l.2 5.4v10l-.2 5.4h3.5l-.1-5.4v-10zm19.4 6.7h3.5a90 90 0 0 0 7.8 8.7h4.4c-3.2-2.3-6.5-6.4-9.4-9.1 2.7-.7 5.3-2.4 5.3-5.7 0-3.5-3.3-6-9.3-6h-5.6l.1 5.4v10.1l-.1 5.3h3.5l-.2-5.3v-3.4zm0-10.2h2.2c4.1 0 6.1 2 6.1 4.2 0 2.5-2.4 4.2-5.7 4.2h-2.6V130z" class="st3"/>
  <path fill="#85904e" fill-rule="evenodd" d="M2.3 166.5c0-1.8 1.3-3.2 3-3.2.7 0 1.2.2 1.7.5v-1l-1.8-.2a3.8 3.8 0 0 0-3.8 3.9c0 2.1 1.7 3.8 3.8 3.8l1.8-.2v-1c-.4.3-1 .5-1.8.5a3 3 0 0 1-3-3.1zm21.3 0c0 2 1.7 3.8 3.8 3.8 2.1 0 3.8-1.7 3.8-3.9 0-2.1-1.7-3.8-3.8-3.8-2 0-3.8 1.7-3.8 3.8zm.8 0a3 3 0 0 1 3-3.2 3 3 0 0 1 3 3.1 3 3 0 0 1-3 3.2 3 3 0 0 1-3-3.2zm24.8-7v-1.8H48l-.4.6h.7v11.9h1l-.1-1.8v-9zm17 7c0 2 1.8 3.8 3.9 3.8 2 0 3.8-1.7 3.8-3.9 0-2.1-1.7-3.8-3.8-3.8-2.1 0-3.8 1.7-3.8 3.8zm.9 0a3 3 0 0 1 3-3.2 3 3 0 0 1 3 3.1 3 3 0 0 1-3 3.2 3 3 0 0 1-3-3.2zm26.8-4c-.9 0-1.7.8-2 2v-1.8h-1.2c0 .2-.2.4-.4.6h.8V170.2h.9v-4.3c0-1.4.9-2.6 1.8-2.6.4 0 .8.1 1 .3v-1h-1zm29 6v1.7h1v-1.7a3.2 3.2 0 0 0 2.9 1.8c2 0 3.8-1.7 3.8-3.9 0-2.1-1.7-3.8-3.8-3.8-1.1 0-2.4.6-3 1.9v-5-1.8h-1.1l-.5.6h.8v10.1zm.9-2c0-1.8 1.3-3.2 2.9-3.2 1.6 0 3 1.4 3 3.1 0 1.8-1.4 3.2-3 3.2s-3-1.4-3-3.2zm25.7-3.2c1.6 0 2.1 1 2.1 2.4v1.2c-.3-.5-1-.9-2-.9-1.6 0-2.5 1-2.5 2.2 0 1.2 1 2.2 2.6 2.2.8 0 1.5-.4 2-1 0 .7.3 1 .7 1l.8-.2v-.6h-.4c-.2 0-.4 0-.4-.5v-3.2c0-2.3-1-3.3-2.7-3.3-1 0-1.6.4-2 .5v1c.3-.5 1-.8 1.8-.8zm-1.5 4.9c0-.8.6-1.5 1.8-1.5 1 0 1.8.7 1.8 1.5 0 .9-.8 1.5-1.8 1.5-1.2 0-1.8-.6-1.8-1.5zm25-5.6c-.9 0-1.8.7-2 1.8v-1.7h-1.2c0 .2-.2.4-.4.6h.7V170.2h1l-.1-1.8V166c0-1.4 1-2.6 1.9-2.6.4 0 .7.1 1 .3v-1h-1z" clip-rule="evenodd"/>
</svg>
